<svg width="30" height="30" viewBox="0 0 30 30" fill="none" xmlns="http://www.w3.org/2000/svg">
<rect width="30" height="30" fill="white"/>
<circle cx="6.5" cy="10" r="1.5" fill="#D4AF37"/>
<line x1="7" y1="10" x2="11" y2="10" stroke="#D4AF37"/>
<circle cx="6.5" cy="10" r="0.5" fill="white"/>
<rect x="9.5" y="9" width="2" height="2" fill="black"/>
<path d="M10.125 23.5V6.04545H17.6591C18.9545 6.04545 20.0881 6.30114 21.0597 6.8125C22.0313 7.32386 22.7869 8.04261 23.3267 8.96875C23.8665 9.89489 24.1364 10.9773 24.1364 12.2159C24.1364 13.4659 23.858 14.5483 23.3011 15.4631C22.75 16.3778 21.9744 17.0824 20.9744 17.5767C19.9801 18.071 18.8182 18.3182 17.4886 18.3182H12.9886V14.6364H16.5341C17.0909 14.6364 17.5653 14.5398 17.9574 14.3466C18.3551 14.1477 18.6591 13.8665 18.8693 13.5028C19.0852 13.1392 19.1932 12.7102 19.1932 12.2159C19.1932 11.7159 19.0852 11.2898 18.8693 10.9375C18.6591 10.5795 18.3551 10.3068 17.9574 10.1193C17.5653 9.92614 17.0909 9.82954 16.5341 9.82954H14.8636V23.5H10.125Z" fill="#18206F"/>
<path d="M15 15.25V9.25H12V15.25H15Z" fill="black" stroke="black" stroke-width="1.5"/>
<rect x="10.1" y="8.5" width="1.9" height="7.5" fill="#CBCBD4"/>
<path d="M15 9.51036V14.9694C18.4487 15.151 20.0191 14.5699 19.9998 11.9917C19.8969 10.1851 18.5 9.39886 15 9.51036Z" stroke="#CBCBD4" stroke-width="2"/>
</svg>
